<svg xmlns="http://www.w3.org/2000/svg" xmlns:xlink="http://www.w3.org/1999/xlink" fill="none" version="1.1" width="37.5" height="30" viewBox="0 0 37.5 30"><defs><clipPath id="master_svg0_1_543"><rect x="0" y="0" width="37.5" height="30" rx="0"/></clipPath></defs><g clip-path="url(#master_svg0_1_543)"><g transform="matrix(1,0,0,-1,0,57.5390625)"><g><path d="M7.5,55.01953125Q5.91797,54.96093125,4.86328,53.906231250000005Q3.80859,52.85153125,3.75,51.26953125L3.75,36.26953125L7.5,36.26953125L7.5,51.26953125L30,51.26953125L30,36.26953125L33.75,36.26953125L33.75,51.26953125Q33.6914,52.85153125,32.6367,53.906231250000005Q31.582,54.96093125,30,55.01953125L7.5,55.01953125ZM1.11328,34.39453125Q0.117188,34.27734125,0,33.28125125Q0.0585938,31.34765125,1.34766,30.05859125Q2.57812,28.82812505,4.51172,28.76953125L32.9883,28.76953125Q34.9219,28.82812505,36.2109,30.05859125Q37.4414,31.34765125,37.5,33.28125125Q37.3828,34.27734125,36.3867,34.39453125L1.11328,34.39453125Z" fill="#1E40AF" fill-opacity="1" style="mix-blend-mode:passthrough"/></g></g></g></svg>