<svg xmlns="http://www.w3.org/2000/svg" xmlns:xlink="http://www.w3.org/1999/xlink" fill="none" version="1.1" width="37.5" height="30" viewBox="0 0 37.5 30"><defs><clipPath id="master_svg0_1_505"><rect x="0" y="0" width="37.5" height="30" rx="0"/></clipPath></defs><g clip-path="url(#master_svg0_1_505)"><g transform="matrix(1,0,0,-1,0,61.289066314697266)"><g><path d="M12.22801092259884,40.01953315734863Q17.35221092259884,40.136723157348634,20.78781092259884,43.066433157348634Q24.223310922598838,45.93753315734863,24.33981092259884,50.33203315734863Q24.223310922598838,54.72653315734863,20.78781092259884,57.59763315734863Q17.35221092259884,60.527333157348636,12.22801092259884,60.64453315734863Q7.103790922598839,60.527333157348636,3.668230922598839,57.59763315734863Q0.23267092259883881,54.72653315734863,0.1162109225988388,50.33203315734863Q0.1744407225988388,46.87503315734863,2.445400922598839,44.29683315734863Q2.096020922598839,43.417933157348635,1.571960922598839,42.83203315734863Q1.1643509225988389,42.304733157348636,0.8149689225988388,42.01173315734863Q0.6402789225988388,41.835933157348634,0.5820499225988388,41.777333157348636Q0.5238199225988388,41.71873315734863,0.5238199225988388,41.71873315734863L0.4655899225988388,41.71873315734863Q-0.00024907740116118793,41.30863315734863,0.1744407225988388,40.66403315734863Q0.4073599225988388,40.078123157348635,1.047887922598839,40.01953315734863Q3.027700922598839,40.078123157348635,4.658140922598839,40.72263315734863Q5.473350922598839,41.07423315734863,6.113880922598839,41.42573315734863Q8.850680922598839,40.078123157348635,12.22801092259884,40.01953315734863ZM26.20321092259884,50.33203315734863Q26.028510922598837,45.292933157348635,22.476410922598838,42.01173315734863Q18.86621092259884,38.730473157348634,13.625510922598838,38.203123157348635Q14.73191092259884,34.86328315734863,17.87631092259884,32.81250315734863Q21.020710922598838,30.703126957348633,25.27151092259884,30.644533157348633Q28.648810922598837,30.703126957348633,31.38561092259884,32.05078315734863Q32.02611092259884,31.699223157348634,32.84141092259884,31.347658157348633Q34.47181092259884,30.703126957348633,36.45161092259884,30.644533157348633Q37.09211092259884,30.703126957348633,37.32511092259884,31.289064157348633Q37.49971092259884,31.933593157348632,36.975710922598836,32.34375315734863L36.975710922598836,32.40234315734863Q36.91741092259884,32.40234315734863,36.91741092259884,32.40234315734863Q36.85921092259884,32.46094315734863,36.68451092259884,32.636723157348634Q36.33511092259884,32.92969315734863,35.92751092259884,33.45703315734863Q35.40351092259884,34.101563157348636,35.05411092259884,34.921873157348635Q37.32511092259884,37.50000315734863,37.38331092259884,40.95703315734863Q37.266810922598836,45.117233157348636,34.12241092259884,47.988333157348634Q30.978010922598838,50.85933315734863,26.14491092259884,51.26953315734863Q26.20321092259884,50.800833157348634,26.20321092259884,50.33203315734863Z" fill="#1E40AF" fill-opacity="1" style="mix-blend-mode:passthrough"/></g></g></g></svg>