<svg xmlns="http://www.w3.org/2000/svg" xmlns:xlink="http://www.w3.org/1999/xlink" fill="none" version="1.1" width="30" height="30" viewBox="0 0 30 30"><defs><clipPath id="master_svg0_1_516"><rect x="0" y="0" width="30" height="30" rx="0"/></clipPath></defs><g clip-path="url(#master_svg0_1_516)"><g transform="matrix(1,0,0,-1,0,61.259796142578125)"><g><path d="M12.38375949420929,60.20509807128906Q11.80235949420929,60.73239807128906,11.046559494209289,60.55669807128906Q10.232559494209289,60.32229807128906,10.058189494209289,59.560598071289064L9.12794949420929,55.86919807128906L5.523299494209289,56.92379807128906Q4.70934949420929,57.099598071289066,4.12794949420929,56.57229807128906Q3.6046994942092896,55.98629807128906,3.7791194942092896,55.16599807128907L4.82562949420929,51.533198071289064L1.1628394942092894,50.595698071289064Q0.40702249420928954,50.41989807128906,0.17446419420928955,49.599598071289066Q0.00004549420928953718,48.83789807128906,0.5233014942092895,48.251998071289066L3.2558594942092896,45.61529807128906L0.5233014942092895,42.97849807128906Q0.00004549420928953718,42.392598071289065,0.17446419420928955,41.63089807128906Q0.40702249420928954,40.810598071289064,1.1628394942092894,40.57618807128906L4.82562949420929,39.69727807128906L3.7791194942092896,36.06446807128906Q3.6046994942092896,35.244158071289064,4.12794949420929,34.65821807128906Q4.70934949420929,34.13087807128906,5.523299494209289,34.306658071289064L9.12794949420929,35.361348071289065L10.058189494209289,31.669938071289064Q10.232559494209289,30.908218071289063,11.046559494209289,30.673843371289063Q11.80235949420929,30.498062071289063,12.38375949420929,31.025406071289062L15.000059494209289,33.72071807128906L17.616359494209288,31.025406071289062Q18.19775949420929,30.498062071289063,18.95355949420929,30.673843371289063Q19.76745949420929,30.908218071289063,20.00005949420929,31.669938071289064L20.87215949420929,35.361348071289065L24.47675949420929,34.306658071289064Q25.29075949420929,34.13087807128906,25.87215949420929,34.65821807128906Q26.39535949420929,35.244158071289064,26.22095949420929,36.06446807128906L25.17445949420929,39.69727807128906L28.837259494209288,40.57618807128906Q29.59305949420929,40.810598071289064,29.82565949420929,41.63089807128906Q30.00005949420929,42.392598071289065,29.47675949420929,42.97849807128906L26.80235949420929,45.61529807128906L29.47675949420929,48.251998071289066Q30.00005949420929,48.83789807128906,29.82565949420929,49.599598071289066Q29.59305949420929,50.41989807128906,28.837259494209288,50.595698071289064L25.17445949420929,51.533198071289064L26.22095949420929,55.16599807128907Q26.39535949420929,55.98629807128906,25.87215949420929,56.57229807128906Q25.29075949420929,57.099598071289066,24.47675949420929,56.92379807128906L20.87215949420929,55.86919807128906L19.94185949420929,59.560598071289064Q19.76745949420929,60.32229807128906,18.95355949420929,60.55669807128906Q18.19775949420929,60.73239807128906,17.616359494209288,60.20509807128906L15.000059494209289,57.45119807128906L12.38375949420929,60.20509807128906Z" fill="#1E40AF" fill-opacity="1" style="mix-blend-mode:passthrough"/></g></g></g></svg>