<svg xmlns="http://www.w3.org/2000/svg" xmlns:xlink="http://www.w3.org/1999/xlink" fill="none" version="1.1" width="14" height="16" viewBox="0 0 14 16"><defs><clipPath id="master_svg0_1_632"><rect x="0" y="0" width="14" height="16" rx="0"/></clipPath></defs><g clip-path="url(#master_svg0_1_632)"><g transform="matrix(1,0,0,-1,0,28.749969482421875)"><g><path d="M3.11111,14.374984741210938L0.217778,14.374984741210938L3.11111,14.374984741210938L0.217778,14.374984741210938L0.217778,23.718734741210938L3.11111,23.718734741210938L3.11111,14.374984741210938ZM1.68,24.999984741210938Q0.964444,25.03128474121094,0.497778,25.499984741210938Q0.0311111,25.96878474121094,0,26.687484741210938Q0.0311111,27.656184741210936,0.84,28.156184741210936Q1.68,28.59378474121094,2.52,28.156184741210936Q3.32889,27.656184741210936,3.36,26.687484741210938Q3.32889,25.96878474121094,2.86222,25.499984741210938Q2.39556,25.03128474121094,1.68,24.999984741210938ZM13.9378,14.374984741210938L11.0444,14.374984741210938L13.9378,14.374984741210938L11.0444,14.374984741210938L11.0444,18.937484741210938Q11.1067,19.781234741210938,10.8578,20.562484741210938Q10.6089,21.343734741210938,9.55111,21.406234741210938Q8.46222,21.374984741210938,8.12,20.656234741210938Q7.77778,19.937484741210938,7.80889,18.999984741210938L7.80889,14.374984741210938L4.91556,14.374984741210938L4.91556,23.718734741210938L7.71556,23.718734741210938L7.71556,22.437484741210938L7.74667,22.437484741210938Q8.02667,23.031234741210938,8.71111,23.468734741210938Q9.42667,23.937484741210938,10.4844,23.968734741210938Q12.6,23.906234741210938,13.3156,22.687484741210938Q14,21.437484741210938,13.9378,19.499984741210938L13.9378,14.374984741210938Z" fill="#9CA3AF" fill-opacity="1" style="mix-blend-mode:passthrough"/></g></g></g></svg>