<svg xmlns="http://www.w3.org/2000/svg" xmlns:xlink="http://www.w3.org/1999/xlink" fill="none" version="1.1" width="30" height="30" viewBox="0 0 30 30"><defs><clipPath id="master_svg0_1_554"><rect x="0" y="0" width="30" height="30" rx="0"/></clipPath></defs><g clip-path="url(#master_svg0_1_554)"><g transform="matrix(1,0,0,-1,0,57.5390625)"><g><path d="M10.7812,54.08203125L19.2188,54.08203125L10.7812,54.08203125L19.2188,54.08203125Q19.6289,54.02343125,19.6875,53.61333125L19.6875,51.26953125L10.3125,51.26953125L10.3125,53.61333125Q10.3711,54.02343125,10.7812,54.08203125ZM7.5,53.61333125L7.5,51.26953125L7.5,53.61333125L7.5,51.26953125L3.75,51.26953125Q2.16797,51.21093125,1.11328,50.156231250000005Q0.0585938,49.10153125,0,47.51953125L0,41.89453125L11.25,41.89453125L30,41.89453125L30,47.51953125Q29.9414,49.10153125,28.8867,50.156231250000005Q27.832,51.21093125,26.25,51.26953125L22.5,51.26953125L22.5,53.61333125Q22.4414,55.01953125,21.5625,55.95703125Q20.625,56.83593125,19.2188,56.89453125L10.7812,56.89453125Q9.375,56.83593125,8.4375,55.95703125Q7.55859,55.01953125,7.5,53.61333125ZM30,40.01953125L18.75,40.01953125L30,40.01953125L18.75,40.01953125L18.75,38.14453125Q18.75,37.32422125,18.2227,36.79687125Q17.6953,36.26953125,16.875,36.26953125L13.125,36.26953125Q12.3047,36.26953125,11.7773,36.79687125Q11.25,37.32422125,11.25,38.14453125L11.25,40.01953125L0,40.01953125L0,32.51953125Q0.0585938,30.93750125,1.11328,29.88281125Q2.16797,28.82812505,3.75,28.76953125L26.25,28.76953125Q27.832,28.82812505,28.8867,29.88281125Q29.9414,30.93750125,30,32.51953125L30,40.01953125Z" fill="#1E40AF" fill-opacity="1" style="mix-blend-mode:passthrough"/></g></g></g></svg>